<svg width="96" height="96" viewBox="0 0 96 96" fill="none" xmlns="http://www.w3.org/2000/svg">
<g clip-path="url(#clip0_1002_538)">
<path fill-rule="evenodd" clip-rule="evenodd" d="M20 6H76V59.6054C74.235 58.5844 72.1857 58 70 58C63.3726 58 58 63.3726 58 70C58 76.6274 63.3726 82 70 82C76.2907 82 81.4508 77.1595 81.9589 71H82V70V7.34726C86.7299 9.59419 90 14.4152 90 20V76C90 83.732 83.732 90 76 90H42V58.3946C43.765 59.4156 45.8143 60 48 60C54.6274 60 60 54.6274 60 48C60 41.3726 54.6274 36 48 36C41.3726 36 36 41.3726 36 48V90H29V45C29 43.3431 27.6569 42 26 42C24.3431 42 23 43.3431 23 45V90H20C12.268 90 6 83.732 6 76V20C6 12.268 12.268 6 20 6ZM0 20C0 8.9543 8.9543 0 20 0H76C87.0457 0 96 8.9543 96 20V76C96 87.0457 87.0457 96 76 96H20C8.9543 96 0 87.0457 0 76V20ZM70 64C73.3137 64 76 66.6863 76 70C76 73.3137 73.3137 76 70 76C66.6863 76 64 73.3137 64 70C64 66.6863 66.6863 64 70 64ZM54 48C54 51.3137 51.3137 54 48 54C44.6863 54 42 51.3137 42 48C42 44.6863 44.6863 42 48 42C51.3137 42 54 44.6863 54 48Z" fill="#4CBC73"/>
<circle cx="26" cy="26" r="9" stroke="#4CBC73" stroke-width="6"/>
</g>
<defs>
<clipPath id="clip0_1002_538">
<rect width="96" height="96" fill="white"/>
</clipPath>
</defs>
</svg>
